# xmcd
#
# Track frame offsets: 
#        182
#        13562
#        27227
#        41172
#        54352
#        65875
#        78872
#        94485
#        108505
#        122850
#        136525
#        150045
#        162962
#        175417
#        189365
#        203162
#        216182
#        230655
#        246275
#        260077
#        275075
#        290637
#        304930
#        318802
#        332772
#
# Disc length: 4620 seconds
#
# Revision: 0
# Processed by: cddbd v1.4PL0 Copyright (c) Steve Scherf et al.
# Submitted via: ExactAudioCopy v0.90b4
#
DISCID=6c120a19
DTITLE=Various Artist - The Complete Louis Armstrong and The Singers (1
DTITLE=924-1930) Vol. 3 1925-26
DYEAR=1993
DGENRE=
TTITLE0=Bertha "Chippie" HIll - Low Land Blues
TTITLE1=Bertha "Chippie" HIll - Kid Man Blues
TTITLE2=Blanche Calloway - Lazy woman Blues
TTITLE3=Blanche Calloway - Lonesome Lovesick Blues
TTITLE4=Hociel Thomas - Gambler's Dream
TTITLE5=Hociel Thomas - Sunshine Baby
TTITLE6=Hociel Thomas - Adam and Eve had the Blues
TTITLE7=Hociel Thomas - Pit It Where I Can Get It
TTITLE8=Hociel Thomas - Washwoman Blues
TTITLE9=Hociel Thomas - I've Stopped My Man
TTITLE10=Bertha "Chippie" Hill - Lonesome, All Alone and Blue
TTITLE11=Bertha "Chippie" Hill - Trouble in Mind
TTITLE12=Bertha "Chippie" Hill - Georgia Man
TTITLE13=Baby Mack - You've Got to Go Home On Time
TTITLE14=Baby Mack - What Kind O' Man is That
TTITLE15=Hociel Thomas - Deep Waer Blues
TTITLE16=Hociel Thomas - G'wan, I Told You
TTITLE17=Hociel Thomas - Listen to Ma
TTITLE18=Hociel Thomas - Lonesome Hours
TTITLE19=Sippie Wallace - A Jelouse Woman Like Me
TTITLE20=Sippie Wallace - Special Delivery Blues
TTITLE21=Sippie Wallace - Jack O' Diamonds Blues
TTITLE22=Sippie Wallace - The Mail Train Blues
TTITLE23=Sippie Wallace - I Feel Good
TTITLE24=Sippie Wallace - A Man For Every Day of the Week
EXTD=
EXTT0=
EXTT1=
EXTT2=
EXTT3=
EXTT4=
EXTT5=
EXTT6=
EXTT7=
EXTT8=
EXTT9=
EXTT10=
EXTT11=
EXTT12=
EXTT13=
EXTT14=
EXTT15=
EXTT16=
EXTT17=
EXTT18=
EXTT19=
EXTT20=
EXTT21=
EXTT22=
EXTT23=
EXTT24=
PLAYORDER=
